<?xml version="1.0" encoding="UTF-8" standalone="no"?>
<svg width="668" height="241" viewBox="0 0 668 241" fill="none" xmlns="http://www.w3.org/2000/svg">
<path d="M378.47 0H398.47L406.47 20H385.97L378.47 0Z" fill="#074A77"/>
<path d="M407.47 21H427.47L435.47 41H414.97L407.47 21Z" fill="#074A77"/>
<path d="M435.47 41H455.47L463.47 61H442.97L435.47 41Z" fill="#074A77"/>
<path d="M464.47 62H484.47L492.47 82H471.97L464.47 62Z" fill="#074A77"/>
<path d="M424.47 62H444.47L452.47 82H431.97L424.47 62Z" fill="#074A77"/>
<path d="M395.47 41H415.47L423.47 61H402.97L395.47 41Z" fill="#074A77"/>
<path d="M358.47 21H378.47L386.47 41H365.97L358.47 21Z" fill="#074A77"/>
<path d="M505.47 62H525.47L533.47 82H512.97L505.47 62Z" fill="#074A77"/>
<path d="M546.47 62H566.47L574.47 82H553.97L546.47 62Z" fill="#074A77"/>
<path d="M558.47 41H578.47L586.47 61H565.97L558.47 41Z" fill="#074A77"/>
<path d="M517.47 41H537.47L545.47 61H524.97L517.47 41Z" fill="#074A77"/>
<path d="M476.47 41H496.47L504.47 61H483.97L476.47 41Z" fill="#074A77"/>
<path d="M448.47 21H468.47L476.47 41H455.97L448.47 21Z" fill="#074A77"/>
<path d="M460.47 0H480.47L488.47 20H467.97L460.47 0Z" fill="#074A77"/>
<path d="M419.47 0H439.47L447.47 20H426.97L419.47 0Z" fill="#F1592A"/>
<path d="M374.47 62H394.47L402.47 82H381.97L374.47 62Z" fill="#F1592A"/>
<path d="M277.47 20H297.47L301.47 40.5H280.97L277.47 20Z" fill="#F1592A"/>
<path d="M313.97 0H333.47L335.97 20H315.97L313.97 0Z" fill="#074A77"/>
<path d="M329.97 41.5H340.47H349.47L362.97 61.5H342.97L329.97 41.5Z" fill="#074A77"/>
<path d="M293.47 62H303.97L313.97 62.5L331.47 82H311.47L293.47 62Z" fill="#074A77"/>
<path d="M248.47 41L258.97 43.5L270.47 46.5L277.97 66L256.97 60L248.47 41Z" fill="#074A77"/>
<path d="M226.47 63.5L231.97 61.5L237.47 60L249.97 78.5L238.47 82L226.47 63.5Z" fill="#074A77"/>
<path d="M199.47 29.5L203.47 24L208.47 17L227.47 30.5L219.47 44L199.47 29.5Z" fill="#074A77"/>
<path d="M148.97 0H157.47H164.47L176.97 19.5L160.97 20L148.97 0Z" fill="#074A77"/>
<path d="M228.47 4L236.97 2L246.97 0L254.97 19.5L236.47 23.75L228.47 4Z" fill="#074A77"/>
<path d="M500.47 0H520.47L528.47 20H507.97L500.47 0Z" fill="#074A77"/>
<path d="M540.47 0H560.47L568.47 20H547.97L540.47 0Z" fill="#074A77"/>
<path d="M489.47 21H509.47L517.47 41H496.97L489.47 21Z" fill="#074A77"/>
<path d="M529.47 21H549.47L557.47 41H536.97L529.47 21Z" fill="#074A77"/>
<path d="M176.47 40L185.47 40.5L187.47 60.5H178.47L176.47 40Z" fill="#F1592A"/>
<path d="M559.97 0H570.97L667.97 238H657.97L559.97 0Z" fill="#074A77"/>
<path d="M507.35 188.772C507.958 187.638 509.114 187.041 510.401 187.077C513.505 187.165 513.688 187.871 515.452 191.81C517.984 197.461 520.52 203.126 523.033 208.788L537.012 239.478L531.029 239.331L524.225 225.65L513.735 225.607L497.647 225.65L491.227 239.331H484.395C484.395 239.331 502.456 197.898 507.35 188.772ZM498.6 220.585C502.732 220.457 511.599 220.42 511.599 220.42C511.599 220.42 518.676 220.448 522.276 220.594C520.796 217.167 510.553 194.546 510.553 194.546C510.553 194.546 502.526 211.91 498.6 220.585Z" fill="#074A77"/>
<path d="M430.321 230.845C434.353 220.295 445.95 188.015 445.95 188.015L451.374 188.015C451.374 188.015 449.67 192.719 448.812 195.202L438.816 223.05C437.051 228.015 433.174 239.812 433.174 239.812H428.246C428.246 239.812 422.516 223.556 421.235 219.836C418.852 212.912 413.545 197.817 413.545 197.817L399.049 239.812H394.571L376.126 188.015H381.512C381.512 188.015 394.811 225.279 397.144 230.91C401.942 217.349 405.691 203.024 410.611 189.477C411.722 186.425 415.734 186.503 416.969 190.063C421.656 203.549 425.589 217.374 430.321 230.845Z" fill="#074A77"/>
<path d="M138.379 188.772C138.987 187.638 140.143 187.041 141.429 187.077C144.533 187.165 144.716 187.871 146.481 191.81C149.012 197.461 151.548 203.126 154.061 208.788L168.041 239.478L162.058 239.331L155.254 225.65L144.763 225.607L128.675 225.65L122.255 239.331H115.423C115.423 239.331 133.485 197.898 138.379 188.772ZM129.628 220.585C133.761 220.457 142.627 220.42 142.627 220.42C142.627 220.42 149.704 220.448 153.304 220.594C151.825 217.167 141.582 194.546 141.582 194.546C141.582 194.546 133.554 211.91 129.628 220.585Z" fill="#074A77"/>
<path d="M296.789 187.473L334.504 187.471L334.452 192.763C334.452 192.763 326.618 192.776 323.812 192.769L302.636 192.723L302.569 211.034H331.001C331.001 211.034 331.063 214.059 331.001 216.076C331.001 216.076 314.518 215.96 306.276 215.977C305.108 216.022 302.547 215.874 302.547 215.874L302.69 234.333H334.517V239.554H296.571L296.613 206.965L296.789 187.473Z" fill="#074A77"/>
<path d="M230.635 186.857C231.267 186.749 231.907 186.693 232.549 186.69C238.344 186.69 242.102 187.669 246.925 190.864C249.075 192.29 251.963 195.224 251.963 195.224C251.963 195.224 250.417 197.534 248.787 199.015C246.355 197.062 244.403 195.448 241.547 194.081C236.587 191.656 230.858 191.332 225.656 193.184C201.209 201.927 212.62 244.05 240.839 233.429C243.541 232.395 246.939 229.404 249.269 227.54C250.299 228.405 252.047 230.244 253.064 231.249C243.783 241.507 227.218 243.638 216.197 235.032C210.907 230.857 207.481 224.76 206.666 218.07C204.748 201.455 213.727 188.689 230.635 186.857Z" fill="#074A77"/>
<path d="M573.394 187.823C573.394 187.823 569.205 187.73 567.5 187.823L589.012 219.555V238.929H594.937C594.937 238.929 594.932 234.925 594.937 232.36C594.946 227.359 595.005 219.555 595.005 219.555C597.798 214.928 605.133 203.803 605.133 203.803L616.118 187.823L609.837 187.823L592.065 213.496L573.394 187.823Z" fill="#074A77"/>
<path d="M37.1475 187.973C45.2659 187.443 59.7649 186.785 66.7798 190.633C69.8586 192.334 72.1346 195.19 73.1053 198.57C76.2133 209.229 69.3361 215.642 59.7357 218.279C61.712 221.76 74.3952 237.29 74.9222 238.888H68.2658C64.1996 234.915 57.6276 224.744 53.4411 219.669C52.1148 219.499 49.4662 219.13 49.4662 219.13L47.9677 215.32C47.9677 215.32 61.3111 215.328 65.3113 210.286C68.5948 206.148 68.9089 199.748 65.1634 196.405C59.3732 191.238 46.4377 192.954 38.7163 192.981C38.1435 191.725 37.1475 187.973 37.1475 187.973Z" fill="#074A77"/>
<path d="M31.4273 173.991L0 95.8739H23.578L41.6147 144.371L59.7888 95.8739H82.6461L50.5866 173.991H31.4273Z" fill="#F1592A"/>
<path d="M163.777 145.676V95.8622H185.702V142.869C187.895 158.743 212.1 160.146 214.205 142.869V95.8622H235.867V145.676C235.867 145.676 235.872 174.617 199.208 174.617C164.83 174.617 163.777 145.676 163.777 145.676Z" fill="#F1592A"/>
<path d="M330.295 173.48V95.8622H351.769V154.69H389.648V173.48H330.295Z" fill="#F1592A"/>
<path d="M395.707 145.676V95.8622H417.632V142.869C419.824 158.743 444.03 160.146 446.134 142.869V95.8622H467.796V145.676C467.796 145.676 467.801 174.617 431.138 174.617C396.759 174.617 395.707 145.676 395.707 145.676Z" fill="#F1592A"/>
<path d="M530.294 119.8L541.166 104.521C531.083 96.5393 523.463 94.7512 507.669 94.5303C491.749 94.5298 479.595 102.51 479.133 118.708C479.133 118.708 478.912 126.355 483.109 132.278C485.986 136.339 492.088 138.389 496.112 140.27C504.143 144.023 526.339 144.818 520.921 153.356C518.542 157.106 515.542 156.92 511.881 156.92C497.018 156.92 487.101 147.616 487.101 147.616L475.054 162.013C487.093 170.295 493.786 174.452 511.881 174.452C530.903 175.545 544.438 163.529 543.027 148.791C542.006 138.132 538.454 130.119 519.626 126.262C506.312 123.671 499.347 121.115 500.715 116.47C502.416 109.25 517.709 111.341 530.294 119.8Z" fill="#F1592A"/>
<path d="M553.913 173.483V95.8647H590.992L598.116 113.823H575.387V125.85H602.943L609.684 142.627C598.448 142.652 575.859 142.688 575.387 142.627V154.693H616.822V173.483H553.913Z" fill="#F1592A"/>
<path d="M246.119 134.656C246.119 157.355 264.52 175.756 287.218 175.756C301.272 175.756 313.679 168.702 321.09 157.941L304.513 146.05C304.359 146.315 304.199 146.577 304.034 146.835C300.492 152.368 294.564 155.995 287.848 155.995C277.001 155.995 268.208 146.534 268.208 134.863C268.208 123.192 277.001 113.731 287.848 113.731C294.564 113.731 300.492 117.358 304.034 122.891L320.235 110.176C312.745 100.091 300.745 93.5566 287.218 93.5566C264.52 93.5566 246.119 111.958 246.119 134.656Z" fill="#F1592A"/>
<path fill-rule="evenodd" clip-rule="evenodd" d="M73.1044 173.991H95.5682L101.53 159.421H131.165L137.04 173.991H160.195L127.018 95.0535H106.282L73.1044 173.991ZM125.231 142.535H107.769L116.561 121.531L125.231 142.535Z" fill="#F1592A"/>
</svg>
